<svg id="visual" viewBox="0 0 960 300" width="960" height="300" xmlns="http://www.w3.org/2000/svg" xmlns:xlink="http://www.w3.org/1999/xlink" version="1.1"><rect x="0" y="0" width="960" height="300" fill="#001220"></rect><defs><linearGradient id="grad1_0" x1="68.8%" y1="0%" x2="100%" y2="100%"><stop offset="-14.000000000000007%" stop-color="#001220" stop-opacity="1"></stop><stop offset="114.00000000000001%" stop-color="#001220" stop-opacity="1"></stop></linearGradient></defs><defs><linearGradient id="grad2_0" x1="0%" y1="0%" x2="31.3%" y2="100%"><stop offset="-14.000000000000007%" stop-color="#001220" stop-opacity="1"></stop><stop offset="114.00000000000001%" stop-color="#001220" stop-opacity="1"></stop></linearGradient></defs><g transform="translate(960, 0)"><path d="M0 270C-39.4 270.6 -78.9 271.3 -103.3 249.4C-127.8 227.6 -137.2 183.3 -154.9 154.9C-172.5 126.4 -198.4 113.9 -219 90.7C-239.5 67.5 -254.8 33.8 -270 0L0 0Z" fill="#FBAE3C"></path></g><g transform="translate(0, 300)"><path d="M0 -270C36.2 -267.8 72.4 -265.7 103.3 -249.4C134.2 -233.2 159.7 -203 172.5 -172.5C185.3 -142.1 185.4 -111.4 199.6 -82.7C213.7 -53.9 241.8 -26.9 270 0L0 0Z" fill="#FBAE3C"></path></g></svg>