<svg id="visual" viewBox="0 0 960 300" width="960" height="300" xmlns="http://www.w3.org/2000/svg" xmlns:xlink="http://www.w3.org/1999/xlink" version="1.1"><rect x="0" y="0" width="960" height="300" fill="#001220"></rect><path d="M0 211L16 205.2C32 199.3 64 187.7 96 184C128 180.3 160 184.7 192 189.5C224 194.3 256 199.7 288 204C320 208.3 352 211.7 384 212C416 212.3 448 209.7 480 204.5C512 199.3 544 191.7 576 194C608 196.3 640 208.7 672 214.5C704 220.3 736 219.7 768 215.7C800 211.7 832 204.3 864 199.8C896 195.3 928 193.7 944 192.8L960 192L960 301L944 301C928 301 896 301 864 301C832 301 800 301 768 301C736 301 704 301 672 301C640 301 608 301 576 301C544 301 512 301 480 301C448 301 416 301 384 301C352 301 320 301 288 301C256 301 224 301 192 301C160 301 128 301 96 301C64 301 32 301 16 301L0 301Z" fill="#fa7268"></path><path d="M0 218L16 216C32 214 64 210 96 209.8C128 209.7 160 213.3 192 213.8C224 214.3 256 211.7 288 212.5C320 213.3 352 217.7 384 218.8C416 220 448 218 480 218.3C512 218.7 544 221.3 576 220C608 218.7 640 213.3 672 213.5C704 213.7 736 219.3 768 220.8C800 222.3 832 219.7 864 221.8C896 224 928 231 944 234.5L960 238L960 301L944 301C928 301 896 301 864 301C832 301 800 301 768 301C736 301 704 301 672 301C640 301 608 301 576 301C544 301 512 301 480 301C448 301 416 301 384 301C352 301 320 301 288 301C256 301 224 301 192 301C160 301 128 301 96 301C64 301 32 301 16 301L0 301Z" fill="#eb5967"></path><path d="M0 233L16 235.7C32 238.3 64 243.7 96 245C128 246.3 160 243.7 192 242.2C224 240.7 256 240.3 288 244C320 247.7 352 255.3 384 253.3C416 251.3 448 239.7 480 235.8C512 232 544 236 576 236.5C608 237 640 234 672 234.7C704 235.3 736 239.7 768 242.8C800 246 832 248 864 250.8C896 253.7 928 257.3 944 259.2L960 261L960 301L944 301C928 301 896 301 864 301C832 301 800 301 768 301C736 301 704 301 672 301C640 301 608 301 576 301C544 301 512 301 480 301C448 301 416 301 384 301C352 301 320 301 288 301C256 301 224 301 192 301C160 301 128 301 96 301C64 301 32 301 16 301L0 301Z" fill="#da3f67"></path><path d="M0 256L16 259C32 262 64 268 96 271.5C128 275 160 276 192 275.3C224 274.7 256 272.3 288 269C320 265.7 352 261.3 384 259.5C416 257.7 448 258.3 480 261C512 263.7 544 268.3 576 272.2C608 276 640 279 672 277.2C704 275.3 736 268.7 768 267C800 265.3 832 268.7 864 268.2C896 267.7 928 263.3 944 261.2L960 259L960 301L944 301C928 301 896 301 864 301C832 301 800 301 768 301C736 301 704 301 672 301C640 301 608 301 576 301C544 301 512 301 480 301C448 301 416 301 384 301C352 301 320 301 288 301C256 301 224 301 192 301C160 301 128 301 96 301C64 301 32 301 16 301L0 301Z" fill="#c62368"></path></svg>